<?xml version="1.0" encoding="UTF-8"?>
<!DOCTYPE svg PUBLIC "-//W3C//DTD SVG 1.1//EN" "http://www.w3.org/Graphics/SVG/1.1/DTD/svg11.dtd">
<svg xmlns="http://www.w3.org/2000/svg" xmlns:xlink="http://www.w3.org/1999/xlink" version="1.1" width="373px" height="348px" viewBox="-0.5 -0.5 373 348"><defs><linearGradient x1="0%" y1="0%" x2="0%" y2="100%" id="mx-gradient-f5f5f5-1-b3b3b3-1-s-0"><stop offset="0%" style="stop-color: rgb(245, 245, 245); stop-opacity: 1;"/><stop offset="100%" style="stop-color: rgb(179, 179, 179); stop-opacity: 1;"/></linearGradient></defs><g><rect x="0.29" y="-0.48" width="369.41" height="343.24" fill="none" stroke="none" pointer-events="none" transform="translate(2,3)" opacity="0.25"/><path d="M 179.73 135.58 Q 169.6 173.45 176.87 201.06" fill="none" stroke="none" pointer-events="none" transform="translate(2,3)" opacity="0.25"/><path d="M 179.73 135.58 M 179.73 135.58 C 173.34 161.55 171.77 181.18 176.87 201.06 M 179.73 135.58 C 172.63 161.86 173.72 181.59 176.87 201.06" fill="none" stroke="#000000" stroke-linejoin="round" stroke-linecap="round" stroke-miterlimit="10" pointer-events="none" transform="translate(2,3)" opacity="0.25"/><path d="M 179.73 135.58 M 179.73 135.58 C 173.34 161.55 171.77 181.18 176.87 201.06 M 179.73 135.58 C 172.63 161.86 173.72 181.59 176.87 201.06" fill="none" stroke="#666666" stroke-linejoin="round" stroke-linecap="round" stroke-miterlimit="10" pointer-events="none"/><path d="M 173.3 199.95 C 173.3 199.95 173.3 199.95 173.3 199.95 M 173.3 199.95 C 173.3 199.95 173.3 199.95 173.3 199.95 M 175.66 203.33 C 176.26 202.15 176.95 201.07 179.6 198.8 M 175.66 203.33 C 177.17 201.84 178.49 199.97 179.6 198.8" fill="none" stroke="#666666" stroke-width="0.5" stroke-linejoin="round" stroke-linecap="round" stroke-miterlimit="10" pointer-events="none"/><path d="M 178.21 206.13 M 178.21 206.13 C 176.62 204.56 175.37 203.09 173.04 200.25 M 178.21 206.13 C 176.65 204.37 175.26 202.6 173.04 200.25 M 173.04 200.25 C 174.4 200.81 175.96 200.74 176.87 201.06 M 173.04 200.25 C 174.5 200.67 175.65 200.88 176.87 201.06 M 176.87 201.06 C 177.82 200.49 178.99 199.4 179.81 198.47 M 176.87 201.06 C 177.51 200.27 178.1 199.8 179.81 198.47 M 179.81 198.47 C 179.38 201.28 178.12 202.8 178.21 206.13 M 179.81 198.47 C 179.55 200.29 179.13 202.74 178.21 206.13" fill="none" stroke="#666666" stroke-linejoin="round" stroke-linecap="round" stroke-miterlimit="10" pointer-events="none"/><path d="M 190.26 206.7 Q 200.39 173.45 192.94 141.27" fill="none" stroke="none" pointer-events="none" transform="translate(2,3)" opacity="0.25"/><path d="M 190.26 206.7 M 190.26 206.7 C 197.38 185.59 196.06 164.11 192.94 141.27 M 190.26 206.7 C 195.47 182.9 198.64 163.31 192.94 141.27" fill="none" stroke="#000000" stroke-linejoin="round" stroke-linecap="round" stroke-miterlimit="10" pointer-events="none" transform="translate(2,3)" opacity="0.25"/><path d="M 190.26 206.7 M 190.26 206.7 C 197.38 185.59 196.06 164.11 192.94 141.27 M 190.26 206.7 C 195.47 182.9 198.64 163.31 192.94 141.27" fill="none" stroke="#666666" stroke-linejoin="round" stroke-linecap="round" stroke-miterlimit="10" pointer-events="none"/><path d="M 191.58 136.35 C 191.58 136.35 191.58 136.35 191.58 136.35 M 191.58 136.35 C 191.58 136.35 191.58 136.35 191.58 136.35 M 190.01 144.26 C 190.78 143.48 192.75 141.56 194.6 138.97 M 190.01 144.26 C 191.49 142.54 193.23 140.41 194.6 138.97" fill="none" stroke="#666666" stroke-width="0.5" stroke-linejoin="round" stroke-linecap="round" stroke-miterlimit="10" pointer-events="none"/><path d="M 191.75 136.16 M 191.75 136.16 C 192.26 137.87 194.21 138.26 196.74 142.19 M 191.75 136.16 C 193.58 137.93 194.7 139.89 196.74 142.19 M 196.74 142.19 C 195.32 142.15 194.48 141.86 192.94 141.27 M 196.74 142.19 C 195.73 142.01 194.33 141.6 192.94 141.27 M 192.94 141.27 C 192.68 141.63 191.67 142.22 189.92 143.76 M 192.94 141.27 C 192.04 142.25 190.92 143.02 189.92 143.76 M 189.92 143.76 C 191.39 140.57 191.76 137.82 191.75 136.16 M 189.92 143.76 C 190.11 141.79 190.93 140.62 191.75 136.16" fill="none" stroke="#666666" stroke-linejoin="round" stroke-linecap="round" stroke-miterlimit="10" pointer-events="none"/><path d="M 257.45 210.28 Q 277.35 190.38 300.44 190.38 Q 323.52 190.38 338.92 205.78" fill="none" stroke="none" pointer-events="none" transform="translate(2,3)" opacity="0.25"/><path d="M 257.45 210.28 M 257.45 210.28 C 271.08 195.43 284.82 191.2 300.44 190.38 M 257.45 210.28 C 269.01 198.51 286.53 188.39 300.44 190.38 M 300.44 190.38 C 317.06 188.83 327.04 193.9 338.92 205.78 M 300.44 190.38 C 313.78 192.64 326.51 197.69 338.92 205.78" fill="none" stroke="#000000" stroke-linejoin="round" stroke-linecap="round" stroke-miterlimit="10" pointer-events="none" transform="translate(2,3)" opacity="0.25"/><path d="M 257.45 210.28 M 257.45 210.28 C 271.08 195.43 284.82 191.2 300.44 190.38 M 257.45 210.28 C 269.01 198.51 286.53 188.39 300.44 190.38 M 300.44 190.38 C 317.06 188.83 327.04 193.9 338.92 205.78 M 300.44 190.38 C 313.78 192.64 326.51 197.69 338.92 205.78" fill="none" stroke="rgb(0, 0, 0)" stroke-linejoin="round" stroke-linecap="round" stroke-miterlimit="10" pointer-events="none"/><path d="M 335.28 206.93 C 335.28 206.93 335.28 206.93 335.28 206.93 M 335.28 206.93 C 335.28 206.93 335.28 206.93 335.28 206.93 M 339.61 208.05 C 340.55 206.83 340.62 206.36 342.89 204.27 M 339.61 208.05 C 340.54 206.96 341.36 206.09 342.89 204.27" fill="none" stroke="rgb(0, 0, 0)" stroke-width="0.5" stroke-linejoin="round" stroke-linecap="round" stroke-miterlimit="10" pointer-events="none"/><path d="M 342.63 209.49 M 342.63 209.49 C 340.72 209.49 338.01 208.68 335.21 207.01 M 342.63 209.49 C 340.53 208.94 338.95 208.23 335.21 207.01 M 335.21 207.01 C 336.28 206.91 337.18 206.43 338.92 205.78 M 335.21 207.01 C 336.29 206.63 337.41 206.39 338.92 205.78 M 338.92 205.78 C 339.42 204.35 340.04 203.13 340.16 202.06 M 338.92 205.78 C 339.35 204.5 339.73 203.12 340.16 202.06 M 340.16 202.06 C 340.91 204.57 341.48 206.67 342.63 209.49 M 340.16 202.06 C 341.06 203.94 341.39 206.37 342.63 209.49" fill="none" stroke="rgb(0, 0, 0)" stroke-linejoin="round" stroke-linecap="round" stroke-miterlimit="10" pointer-events="none"/><path d="M 343.42 232.05 Q 323.52 251.95 300.44 251.95 Q 277.35 251.95 261.95 236.55" fill="none" stroke="none" pointer-events="none" transform="translate(2,3)" opacity="0.25"/><path d="M 343.42 232.05 M 343.42 232.05 C 330.52 244.08 314.01 251.62 300.44 251.95 M 343.42 232.05 C 331.86 244.15 316.35 251.62 300.44 251.95 M 300.44 251.95 C 286.55 251.6 273 245.63 261.95 236.55 M 300.44 251.95 C 284.78 252.9 270.88 247.3 261.95 236.55" fill="none" stroke="#000000" stroke-linejoin="round" stroke-linecap="round" stroke-miterlimit="10" pointer-events="none" transform="translate(2,3)" opacity="0.25"/><path d="M 343.42 232.05 M 343.42 232.05 C 330.52 244.08 314.01 251.62 300.44 251.95 M 343.42 232.05 C 331.86 244.15 316.35 251.62 300.44 251.95 M 300.44 251.95 C 286.55 251.6 273 245.63 261.95 236.55 M 300.44 251.95 C 284.78 252.9 270.88 247.3 261.95 236.55" fill="none" stroke="#000000" stroke-linejoin="round" stroke-linecap="round" stroke-miterlimit="10" pointer-events="none"/><path d="M 258.3 232.77 C 258.3 232.77 258.3 232.77 258.3 232.77 M 258.3 232.77 C 258.3 232.77 258.3 232.77 258.3 232.77 M 260.01 236.9 C 260.8 236.27 261.52 235.52 262.63 233.89 M 260.01 236.9 C 260.53 236.05 261.3 235.78 262.63 233.89" fill="none" stroke="#000000" stroke-width="0.5" stroke-linejoin="round" stroke-linecap="round" stroke-miterlimit="10" pointer-events="none"/><path d="M 258.24 232.84 M 258.24 232.84 C 259.78 232.8 261.49 233.8 265.66 235.31 M 258.24 232.84 C 260.16 233.75 262.49 234.03 265.66 235.31 M 265.66 235.31 C 264.74 235.8 264.02 235.45 261.95 236.55 M 265.66 235.31 C 264.66 235.71 263.6 236.16 261.95 236.55 M 261.95 236.55 C 261.14 238.04 261.06 239.72 260.71 240.26 M 261.95 236.55 C 261.83 237.32 261.52 238.23 260.71 240.26 M 260.71 240.26 C 260.78 237.95 260.4 236.96 258.24 232.84 M 260.71 240.26 C 259.9 238.22 259.31 236.85 258.24 232.84" fill="none" stroke="#000000" stroke-linejoin="round" stroke-linecap="round" stroke-miterlimit="10" pointer-events="none"/><path d="M 175.01 315.65 Q 161.91 299.66 161.91 280.42 Q 161.91 261.18 176.09 240.85" fill="none" stroke="none" pointer-events="none" transform="translate(2,3)" opacity="0.25"/><path d="M 175.01 315.65 M 175.01 315.65 C 166.64 303.91 161.82 293.5 161.91 280.42 M 175.01 315.65 C 166.98 304.19 162.34 291.25 161.91 280.42 M 161.91 280.42 C 161.89 268.2 164.83 255.47 176.09 240.85 M 161.91 280.42 C 162.84 269.38 166.3 255.69 176.09 240.85" fill="none" stroke="#000000" stroke-linejoin="round" stroke-linecap="round" stroke-miterlimit="10" pointer-events="none" transform="translate(2,3)" opacity="0.25"/><path d="M 175.01 315.65 M 175.01 315.65 C 166.64 303.91 161.82 293.5 161.91 280.42 M 175.01 315.65 C 166.98 304.19 162.34 291.25 161.91 280.42 M 161.91 280.42 C 161.89 268.2 164.83 255.47 176.09 240.85 M 161.91 280.42 C 162.84 269.38 166.3 255.69 176.09 240.85" fill="none" stroke="rgb(0, 0, 0)" stroke-linejoin="round" stroke-linecap="round" stroke-miterlimit="10" pointer-events="none"/><path d="M 172.31 240.17 C 172.31 240.17 172.31 240.17 172.31 240.17 M 172.31 240.17 C 172.31 240.17 172.31 240.17 172.31 240.17 M 176.64 241.29 C 177.53 240.35 178.74 239.25 179.92 237.51 M 176.64 241.29 C 177.18 240.34 178.05 239.67 179.92 237.51" fill="none" stroke="rgb(0, 0, 0)" stroke-width="0.5" stroke-linejoin="round" stroke-linecap="round" stroke-miterlimit="10" pointer-events="none"/><path d="M 179.09 236.54 M 179.09 236.54 C 179.14 239.58 178.61 240.79 177.96 244.29 M 179.09 236.54 C 179.04 238.7 178.19 240.98 177.96 244.29 M 177.96 244.29 C 177.17 243.12 176.64 241.89 176.09 240.85 M 177.96 244.29 C 177.26 243.27 176.64 242.36 176.09 240.85 M 176.09 240.85 C 175.14 240.75 174.62 240.58 172.22 240.28 M 176.09 240.85 C 175.21 240.87 174.28 240.39 172.22 240.28 M 172.22 240.28 C 173.4 238.64 176.1 237.73 179.09 236.54 M 172.22 240.28 C 175.16 238.6 177.05 237.79 179.09 236.54" fill="none" stroke="rgb(0, 0, 0)" stroke-linejoin="round" stroke-linecap="round" stroke-miterlimit="10" pointer-events="none"/><path d="M 191.5 235.11 Q 215.78 265.8 198.21 310.56" fill="none" stroke="none" pointer-events="none" transform="translate(2,3)" opacity="0.25"/><path d="M 191.5 235.11 M 191.5 235.11 C 208.05 254.83 208.24 279.83 198.21 310.56 M 191.5 235.11 C 207.2 256.71 209.39 280.38 198.21 310.56" fill="none" stroke="#000000" stroke-linejoin="round" stroke-linecap="round" stroke-miterlimit="10" pointer-events="none" transform="translate(2,3)" opacity="0.25"/><path d="M 191.5 235.11 M 191.5 235.11 C 208.05 254.83 208.24 279.83 198.21 310.56 M 191.5 235.11 C 207.2 256.71 209.39 280.38 198.21 310.56" fill="none" stroke="#000000" stroke-linejoin="round" stroke-linecap="round" stroke-miterlimit="10" pointer-events="none"/><path d="M 195.36 307.91 C 195.36 307.91 195.36 307.91 195.36 307.91 M 195.36 307.91 C 195.36 307.91 195.36 307.91 195.36 307.91 M 196.41 312.8 C 196.98 311.9 197.6 311.55 198.38 310.54 M 196.41 312.8 C 197.26 311.79 197.96 310.96 198.38 310.54" fill="none" stroke="#000000" stroke-width="0.5" stroke-linejoin="round" stroke-linecap="round" stroke-miterlimit="10" pointer-events="none"/><path d="M 196.29 315.44 M 196.29 315.44 C 196.24 312.95 196.64 311.9 195.59 307.65 M 196.29 315.44 C 196.03 312.82 195.67 310.6 195.59 307.65 M 195.59 307.65 C 196.06 308.69 197.17 309.26 198.21 310.56 M 195.59 307.65 C 196.26 308.41 196.93 309.29 198.21 310.56 M 198.21 310.56 C 199.53 310.84 200.34 310.25 202.1 310.21 M 198.21 310.56 C 199.55 310.56 200.7 310.27 202.1 310.21 M 202.1 310.21 C 199.81 312.51 197.29 314.03 196.29 315.44 M 202.1 310.21 C 200.17 311.8 197.88 313.54 196.29 315.44" fill="none" stroke="#000000" stroke-linejoin="round" stroke-linecap="round" stroke-miterlimit="10" pointer-events="none"/><path d="M 112.54 232.05 Q 92.64 251.95 69.55 251.95 Q 46.47 251.95 31.07 236.55" fill="none" stroke="none" pointer-events="none" transform="translate(2,3)" opacity="0.25"/><path d="M 112.54 232.05 M 112.54 232.05 C 99.64 245.26 84.07 252.77 69.55 251.95 M 112.54 232.05 C 101 245.72 87.09 250.33 69.55 251.95 M 69.55 251.95 C 54.95 252.18 42.71 245.16 31.07 236.55 M 69.55 251.95 C 55.82 249.81 43.42 247.63 31.07 236.55" fill="none" stroke="#000000" stroke-linejoin="round" stroke-linecap="round" stroke-miterlimit="10" pointer-events="none" transform="translate(2,3)" opacity="0.25"/><path d="M 112.54 232.05 M 112.54 232.05 C 99.64 245.26 84.07 252.77 69.55 251.95 M 112.54 232.05 C 101 245.72 87.09 250.33 69.55 251.95 M 69.55 251.95 C 54.95 252.18 42.71 245.16 31.07 236.55 M 69.55 251.95 C 55.82 249.81 43.42 247.63 31.07 236.55" fill="none" stroke="rgb(0, 0, 0)" stroke-linejoin="round" stroke-linecap="round" stroke-miterlimit="10" pointer-events="none"/><path d="M 27.07 233.17 C 27.07 233.17 27.07 233.17 27.07 233.17 M 27.07 233.17 C 27.07 233.17 27.07 233.17 27.07 233.17 M 28.78 237.3 C 29.55 235.99 30.91 234.78 31.4 234.28 M 28.78 237.3 C 29.86 236.43 30.62 235.39 31.4 234.28" fill="none" stroke="rgb(0, 0, 0)" stroke-width="0.5" stroke-linejoin="round" stroke-linecap="round" stroke-miterlimit="10" pointer-events="none"/><path d="M 27.36 232.84 M 27.36 232.84 C 29.9 234.27 33.34 234.28 34.78 235.31 M 27.36 232.84 C 29.15 233.47 30.63 234.28 34.78 235.31 M 34.78 235.31 C 33.15 235.94 32.15 236 31.07 236.55 M 34.78 235.31 C 33.26 235.72 31.96 236.23 31.07 236.55 M 31.07 236.55 C 30.88 237.76 30.58 238.08 29.83 240.26 M 31.07 236.55 C 30.76 237.73 30.32 239.07 29.83 240.26 M 29.83 240.26 C 28.53 238.19 28.13 235.75 27.36 232.84 M 29.83 240.26 C 29.34 238.01 28.38 236.24 27.36 232.84" fill="none" stroke="rgb(0, 0, 0)" stroke-linejoin="round" stroke-linecap="round" stroke-miterlimit="10" pointer-events="none"/><path d="M 26.57 210.28 Q 46.47 190.38 69.55 190.38 Q 92.64 190.38 108.04 205.78" fill="none" stroke="none" pointer-events="none" transform="translate(2,3)" opacity="0.25"/><path d="M 26.57 210.28 M 26.57 210.28 C 40.21 197.64 54.1 188.92 69.55 190.38 M 26.57 210.28 C 39.19 196.68 54.38 192.07 69.55 190.38 M 69.55 190.38 C 86.27 189.02 95.93 194.71 108.04 205.78 M 69.55 190.38 C 85.55 190.23 96.87 197.55 108.04 205.78" fill="none" stroke="#000000" stroke-linejoin="round" stroke-linecap="round" stroke-miterlimit="10" pointer-events="none" transform="translate(2,3)" opacity="0.25"/><path d="M 26.57 210.28 M 26.57 210.28 C 40.21 197.64 54.1 188.92 69.55 190.38 M 26.57 210.28 C 39.19 196.68 54.38 192.07 69.55 190.38 M 69.55 190.38 C 86.27 189.02 95.93 194.71 108.04 205.78 M 69.55 190.38 C 85.55 190.23 96.87 197.55 108.04 205.78" fill="none" stroke="rgb(0, 0, 0)" stroke-linejoin="round" stroke-linecap="round" stroke-miterlimit="10" pointer-events="none"/><path d="M 104.05 207.33 C 104.05 207.33 104.05 207.33 104.05 207.33 M 104.05 207.33 C 104.05 207.33 104.05 207.33 104.05 207.33 M 108.38 208.45 C 108.71 207.35 110.41 206.67 111.66 204.67 M 108.38 208.45 C 109.25 207.4 110.48 206.17 111.66 204.67" fill="none" stroke="rgb(0, 0, 0)" stroke-width="0.5" stroke-linejoin="round" stroke-linecap="round" stroke-miterlimit="10" pointer-events="none"/><path d="M 111.75 209.49 M 111.75 209.49 C 110.2 208.51 106.89 207.97 104.33 207.01 M 111.75 209.49 C 109.18 208.96 107.68 208.41 104.33 207.01 M 104.33 207.01 C 105.43 206.74 106.39 206.66 108.04 205.78 M 104.33 207.01 C 105.41 206.66 106.12 206.33 108.04 205.78 M 108.04 205.78 C 108.48 204.56 109.29 203.21 109.28 202.06 M 108.04 205.78 C 108.44 204.52 108.81 203.51 109.28 202.06 M 109.28 202.06 C 110.77 204.98 111.25 206.29 111.75 209.49 M 109.28 202.06 C 110.55 204.76 111.23 208.21 111.75 209.49" fill="none" stroke="rgb(0, 0, 0)" stroke-linejoin="round" stroke-linecap="round" stroke-miterlimit="10" pointer-events="none"/><path d="M 171.05 227.67 Q 161.91 247.33 139.19 234.23" fill="none" stroke="none" pointer-events="none" transform="translate(2,3)" opacity="0.25"/><path d="M 171.05 227.67 M 171.05 227.67 C 165.33 241.74 152.68 244.36 139.19 234.23 M 171.05 227.67 C 163.11 242.38 153.59 241.71 139.19 234.23" fill="none" stroke="#000000" stroke-linejoin="round" stroke-linecap="round" stroke-miterlimit="10" pointer-events="none" transform="translate(2,3)" opacity="0.25"/><path d="M 171.05 227.67 M 171.05 227.67 C 165.33 241.74 152.68 244.36 139.19 234.23 M 171.05 227.67 C 163.11 242.38 153.59 241.71 139.19 234.23" fill="none" stroke="#666666" stroke-linejoin="round" stroke-linecap="round" stroke-miterlimit="10" pointer-events="none"/><path d="M 134.81 231.42 C 134.81 231.42 134.81 231.42 134.81 231.42 M 134.81 231.42 C 134.81 231.42 134.81 231.42 134.81 231.42 M 137.17 234.8 C 138.27 234.26 138.7 233.35 139.79 231.78 M 137.17 234.8 C 138.04 233.97 138.74 233.02 139.79 231.78" fill="none" stroke="#666666" stroke-width="0.5" stroke-linejoin="round" stroke-linecap="round" stroke-miterlimit="10" pointer-events="none"/><path d="M 134.65 231.6 M 134.65 231.6 C 137.29 231.92 139.17 231.3 142.46 232.07 M 134.65 231.6 C 137.39 231.97 139.55 231.89 142.46 232.07 M 142.46 232.07 C 141.51 232.62 140.8 232.94 139.19 234.23 M 142.46 232.07 C 141.57 232.47 141.01 232.91 139.19 234.23 M 139.19 234.23 C 139.43 235.1 139.07 236.62 138.96 238.13 M 139.19 234.23 C 139.33 234.9 139.27 236.05 138.96 238.13 M 138.96 238.13 C 136.95 235.43 135.36 232.85 134.65 231.6 M 138.96 238.13 C 137.4 235.55 135.94 233.05 134.65 231.6" fill="none" stroke="#666666" stroke-linejoin="round" stroke-linecap="round" stroke-miterlimit="10" pointer-events="none"/><path d="M 134.31 210.28 Q 148.05 198.08 165.54 211.94" fill="none" stroke="none" pointer-events="none" transform="translate(2,3)" opacity="0.25"/><path d="M 134.31 210.28 M 134.31 210.28 C 143.84 203.45 154.63 202.95 165.54 211.94 M 134.31 210.28 C 145.04 201.08 152.17 203.1 165.54 211.94" fill="none" stroke="#000000" stroke-linejoin="round" stroke-linecap="round" stroke-miterlimit="10" pointer-events="none" transform="translate(2,3)" opacity="0.25"/><path d="M 134.31 210.28 M 134.31 210.28 C 143.84 203.45 154.63 202.95 165.54 211.94 M 134.31 210.28 C 145.04 201.08 152.17 203.1 165.54 211.94" fill="none" stroke="#666666" stroke-linejoin="round" stroke-linecap="round" stroke-miterlimit="10" pointer-events="none"/><path d="M 166.16 208.32 C 166.16 208.32 166.16 208.32 166.16 208.32 M 166.16 208.32 C 166.16 208.32 166.16 208.32 166.16 208.32 M 164.58 216.23 C 166.3 214.74 166.73 212.8 168.52 211.7 M 164.58 216.23 C 165.55 215.09 166.78 214.3 168.52 211.7" fill="none" stroke="#666666" stroke-width="0.5" stroke-linejoin="round" stroke-linecap="round" stroke-miterlimit="10" pointer-events="none"/><path d="M 169.66 215.2 M 169.66 215.2 C 168.15 215.53 165.33 215 162 213.6 M 169.66 215.2 C 166.57 214.94 163.61 213.65 162 213.6 M 162 213.6 C 163.54 213.12 164.94 212.72 165.54 211.94 M 162 213.6 C 163.26 212.92 164.75 212.24 165.54 211.94 M 165.54 211.94 C 165.65 210.79 165.78 209.48 166.34 208.11 M 165.54 211.94 C 165.76 210.94 166.01 209.47 166.34 208.11 M 166.34 208.11 C 167.57 210.85 167.49 212.34 169.66 215.2 M 166.34 208.11 C 167.19 210.14 168.75 212.43 169.66 215.2" fill="none" stroke="#666666" stroke-linejoin="round" stroke-linecap="round" stroke-miterlimit="10" pointer-events="none"/><path d="M 235.68 210.28 Q 220.4 196.54 203.81 210.55" fill="none" stroke="none" pointer-events="none" transform="translate(2,3)" opacity="0.25"/><path d="M 235.68 210.28 M 235.68 210.28 C 225.86 202.77 214.02 200.32 203.81 210.55 M 235.68 210.28 C 225.87 201.98 216.8 203.27 203.81 210.55" fill="none" stroke="#000000" stroke-linejoin="round" stroke-linecap="round" stroke-miterlimit="10" pointer-events="none" transform="translate(2,3)" opacity="0.25"/><path d="M 235.68 210.28 M 235.68 210.28 C 225.86 202.77 214.02 200.32 203.81 210.55 M 235.68 210.28 C 225.87 201.98 216.8 203.27 203.81 210.55" fill="none" stroke="#666666" stroke-linejoin="round" stroke-linecap="round" stroke-miterlimit="10" pointer-events="none"/><path d="M 202.7 206.97 C 202.7 206.97 202.7 206.97 202.7 206.97 M 202.7 206.97 C 202.7 206.97 202.7 206.97 202.7 206.97 M 201.13 214.87 C 202.53 212.99 203.73 211.92 204.41 211.1 M 201.13 214.87 C 201.65 213.94 202.82 213.33 204.41 211.1" fill="none" stroke="#666666" stroke-width="0.5" stroke-linejoin="round" stroke-linecap="round" stroke-miterlimit="10" pointer-events="none"/><path d="M 199.8 213.94 M 199.8 213.94 C 201.1 210.62 202.07 208.2 202.89 206.75 M 199.8 213.94 C 200.79 212.7 201.01 210.8 202.89 206.75 M 202.89 206.75 C 203.11 208 203.61 208.92 203.81 210.55 M 202.89 206.75 C 203.27 207.88 203.38 209.01 203.81 210.55 M 203.81 210.55 C 204.81 210.63 205.63 211.34 207.4 212.09 M 203.81 210.55 C 204.69 211.02 205.46 211.25 207.4 212.09 M 207.4 212.09 C 203.92 212.85 202.08 214.03 199.8 213.94 M 207.4 212.09 C 205.43 212.45 203.34 213.11 199.8 213.94" fill="none" stroke="#666666" stroke-linejoin="round" stroke-linecap="round" stroke-miterlimit="10" pointer-events="none"/><path d="M 199.46 226.43 Q 209.62 242.71 229.79 234.46" fill="none" stroke="none" pointer-events="none" transform="translate(2,3)" opacity="0.25"/><path d="M 199.46 226.43 M 199.46 226.43 C 206.6 238.41 216.41 241.93 229.79 234.46 M 199.46 226.43 C 207.99 239.26 215.5 241.64 229.79 234.46" fill="none" stroke="#000000" stroke-linejoin="round" stroke-linecap="round" stroke-miterlimit="10" pointer-events="none" transform="translate(2,3)" opacity="0.25"/><path d="M 199.46 226.43 M 199.46 226.43 C 206.6 238.41 216.41 241.93 229.79 234.46 M 199.46 226.43 C 207.99 239.26 215.5 241.64 229.79 234.46" fill="none" stroke="#666666" stroke-linejoin="round" stroke-linecap="round" stroke-miterlimit="10" pointer-events="none"/><path d="M 226.82 231.9 C 226.82 231.9 226.82 231.9 226.82 231.9 M 226.82 231.9 C 226.82 231.9 226.82 231.9 226.82 231.9 M 229.84 234.53 C 230.6 234.04 231.1 233.25 231.81 232.26 M 229.84 234.53 C 230.42 233.98 230.89 233.36 231.81 232.26" fill="none" stroke="#666666" stroke-width="0.5" stroke-linejoin="round" stroke-linecap="round" stroke-miterlimit="10" pointer-events="none"/><path d="M 234.64 232.47 M 234.64 232.47 C 232.27 234.44 231.59 237.3 229.49 238.36 M 234.64 232.47 C 233.06 234.3 231.17 236.44 229.49 238.36 M 229.49 238.36 C 229.51 236.8 229.79 234.98 229.79 234.46 M 229.49 238.36 C 229.6 237.31 229.82 236.32 229.79 234.46 M 229.79 234.46 C 228.63 233.45 228.14 232.82 226.84 231.88 M 229.79 234.46 C 228.58 233.59 227.35 232.5 226.84 231.88 M 226.84 231.88 C 228.84 232.06 231.59 231.74 234.64 232.47 M 226.84 231.88 C 228.85 231.78 231.27 231.94 234.64 232.47" fill="none" stroke="#666666" stroke-linejoin="round" stroke-linecap="round" stroke-miterlimit="10" pointer-events="none"/><path d="M 112.54 132 Q 92.64 151.9 69.55 151.9 Q 46.47 151.9 31.07 136.5" fill="none" stroke="none" pointer-events="none" transform="translate(2,3)" opacity="0.25"/><path d="M 112.54 132 M 112.54 132 C 99.64 143.76 86.63 153.3 69.55 151.9 M 112.54 132 C 100.87 145.77 84.85 151.01 69.55 151.9 M 69.55 151.9 C 55.32 153.53 40.87 146.35 31.07 136.5 M 69.55 151.9 C 55.64 150.64 40.87 145.75 31.07 136.5" fill="none" stroke="#000000" stroke-linejoin="round" stroke-linecap="round" stroke-miterlimit="10" pointer-events="none" transform="translate(2,3)" opacity="0.25"/><path d="M 112.54 132 M 112.54 132 C 99.64 143.76 86.63 153.3 69.55 151.9 M 112.54 132 C 100.87 145.77 84.85 151.01 69.55 151.9 M 69.55 151.9 C 55.32 153.53 40.87 146.35 31.07 136.5 M 69.55 151.9 C 55.64 150.64 40.87 145.75 31.07 136.5" fill="none" stroke="rgb(0, 0, 0)" stroke-linejoin="round" stroke-linecap="round" stroke-miterlimit="10" pointer-events="none"/><path d="M 27.4 132.75 C 27.4 132.75 27.4 132.75 27.4 132.75 M 27.4 132.75 C 27.4 132.75 27.4 132.75 27.4 132.75 M 29.1 136.88 C 29.69 135.76 30.9 135.42 31.73 133.86 M 29.1 136.88 C 29.9 135.66 31.11 134.75 31.73 133.86" fill="none" stroke="rgb(0, 0, 0)" stroke-width="0.5" stroke-linejoin="round" stroke-linecap="round" stroke-miterlimit="10" pointer-events="none"/><path d="M 27.36 132.79 M 27.36 132.79 C 30.4 133.9 32.84 134.9 34.78 135.27 M 27.36 132.79 C 29.08 133.7 31.74 134.49 34.78 135.27 M 34.78 135.27 C 33.72 135.67 32.17 136.48 31.07 136.5 M 34.78 135.27 C 33.95 135.48 32.87 136.07 31.07 136.5 M 31.07 136.5 C 31.08 136.9 30.29 138.43 29.83 140.22 M 31.07 136.5 C 30.45 137.87 29.95 139.56 29.83 140.22 M 29.83 140.22 C 28.58 139.02 28.9 138 27.36 132.79 M 29.83 140.22 C 29.05 137.38 28.36 135.34 27.36 132.79" fill="none" stroke="rgb(0, 0, 0)" stroke-linejoin="round" stroke-linecap="round" stroke-miterlimit="10" pointer-events="none"/><path d="M 26.57 110.23 Q 46.47 90.33 69.55 90.33 Q 92.64 90.33 108.04 105.73" fill="none" stroke="none" pointer-events="none" transform="translate(2,3)" opacity="0.25"/><path d="M 26.57 110.23 M 26.57 110.23 C 40.21 95.79 54.26 90.58 69.55 90.33 M 26.57 110.23 C 40.24 94.8 53.11 91.09 69.55 90.33 M 69.55 90.33 C 86.37 89.16 99.7 95.47 108.04 105.73 M 69.55 90.33 C 83.6 92.37 98.12 97.35 108.04 105.73" fill="none" stroke="#000000" stroke-linejoin="round" stroke-linecap="round" stroke-miterlimit="10" pointer-events="none" transform="translate(2,3)" opacity="0.25"/><path d="M 26.57 110.23 M 26.57 110.23 C 40.21 95.79 54.26 90.58 69.55 90.33 M 26.57 110.23 C 40.24 94.8 53.11 91.09 69.55 90.33 M 69.55 90.33 C 86.37 89.16 99.7 95.47 108.04 105.73 M 69.55 90.33 C 83.6 92.37 98.12 97.35 108.04 105.73" fill="none" stroke="rgb(0, 0, 0)" stroke-linejoin="round" stroke-linecap="round" stroke-miterlimit="10" pointer-events="none"/><path d="M 104.38 106.92 C 104.38 106.92 104.38 106.92 104.38 106.92 M 104.38 106.92 C 104.38 106.92 104.38 106.92 104.38 106.92 M 108.71 108.03 C 109.42 107.05 110.76 106.17 111.99 104.26 M 108.71 108.03 C 109.93 106.52 111.09 105.43 111.99 104.26" fill="none" stroke="rgb(0, 0, 0)" stroke-width="0.5" stroke-linejoin="round" stroke-linecap="round" stroke-miterlimit="10" pointer-events="none"/><path d="M 111.75 109.44 M 111.75 109.44 C 108.95 109.06 106.6 107.22 104.33 106.97 M 111.75 109.44 C 109.45 108.92 107.24 107.78 104.33 106.97 M 104.33 106.97 C 105.44 106.59 106.45 106.15 108.04 105.73 M 104.33 106.97 C 104.99 106.57 106.09 106.54 108.04 105.73 M 108.04 105.73 C 108.24 104.68 109 103.94 109.28 102.02 M 108.04 105.73 C 108.42 104.53 108.77 103.49 109.28 102.02 M 109.28 102.02 C 109.79 103.73 110.18 105.82 111.75 109.44 M 109.28 102.02 C 109.8 104.06 111.12 106.24 111.75 109.44" fill="none" stroke="rgb(0, 0, 0)" stroke-linejoin="round" stroke-linecap="round" stroke-miterlimit="10" pointer-events="none"/><path d="M 194.98 26.63 Q 208.08 42.62 208.08 61.86 Q 208.08 81.1 193.9 101.43" fill="none" stroke="none" pointer-events="none" transform="translate(2,3)" opacity="0.25"/><path d="M 194.98 26.63 M 194.98 26.63 C 204.08 37.14 207.39 49.86 208.08 61.86 M 194.98 26.63 C 205.14 36.32 208.74 50.16 208.08 61.86 M 208.08 61.86 C 206.31 73.14 204.46 89.17 193.9 101.43 M 208.08 61.86 C 207.46 72.8 201.52 89.29 193.9 101.43" fill="none" stroke="#000000" stroke-linejoin="round" stroke-linecap="round" stroke-miterlimit="10" pointer-events="none" transform="translate(2,3)" opacity="0.25"/><path d="M 194.98 26.63 M 194.98 26.63 C 204.08 37.14 207.39 49.86 208.08 61.86 M 194.98 26.63 C 205.14 36.32 208.74 50.16 208.08 61.86 M 208.08 61.86 C 206.31 73.14 204.46 89.17 193.9 101.43 M 208.08 61.86 C 207.46 72.8 201.52 89.29 193.9 101.43" fill="none" stroke="rgb(0, 0, 0)" stroke-linejoin="round" stroke-linecap="round" stroke-miterlimit="10" pointer-events="none"/><path d="M 191.87 98.17 C 191.87 98.17 191.87 98.17 191.87 98.17 M 191.87 98.17 C 191.87 98.17 191.87 98.17 191.87 98.17 M 190.95 105.33 C 192.09 104.32 192.26 103.79 194.23 101.55 M 190.95 105.33 C 191.83 104.43 192.92 102.95 194.23 101.55" fill="none" stroke="rgb(0, 0, 0)" stroke-width="0.5" stroke-linejoin="round" stroke-linecap="round" stroke-miterlimit="10" pointer-events="none"/><path d="M 190.9 105.74 M 190.9 105.74 C 191.86 104.17 191.61 101.54 192.03 97.99 M 190.9 105.74 C 191.13 103.47 191.23 102.26 192.03 97.99 M 192.03 97.99 C 192.53 99.07 193.34 100.39 193.9 101.43 M 192.03 97.99 C 192.37 98.72 192.89 99.78 193.9 101.43 M 193.9 101.43 C 195.18 101.89 196.49 101.85 197.77 102 M 193.9 101.43 C 195.54 101.71 197.07 101.72 197.77 102 M 197.77 102 C 195.46 103.85 192.44 105.03 190.9 105.74 M 197.77 102 C 196.05 102.54 194.85 103.59 190.9 105.74" fill="none" stroke="rgb(0, 0, 0)" stroke-linejoin="round" stroke-linecap="round" stroke-miterlimit="10" pointer-events="none"/><path d="M 178.49 107.17 Q 154.21 76.48 171.78 31.72" fill="none" stroke="none" pointer-events="none" transform="translate(2,3)" opacity="0.25"/><path d="M 178.49 107.17 M 178.49 107.17 C 162.67 86.9 161.78 61.24 171.78 31.72 M 178.49 107.17 C 162.54 87.67 159.76 59.75 171.78 31.72" fill="none" stroke="#000000" stroke-linejoin="round" stroke-linecap="round" stroke-miterlimit="10" pointer-events="none" transform="translate(2,3)" opacity="0.25"/><path d="M 178.49 107.17 M 178.49 107.17 C 162.67 86.9 161.78 61.24 171.78 31.72 M 178.49 107.17 C 162.54 87.67 159.76 59.75 171.78 31.72" fill="none" stroke="rgb(0, 0, 0)" stroke-linejoin="round" stroke-linecap="round" stroke-miterlimit="10" pointer-events="none"/><path d="M 167.79 32.19 C 167.79 32.19 167.79 32.19 167.79 32.19 M 167.79 32.19 C 167.79 32.19 167.79 32.19 167.79 32.19 M 172.77 32.55 C 173.96 31.97 173.96 30.98 176.06 28.77 M 172.77 32.55 C 173.45 31.67 174.68 30.73 176.06 28.77" fill="none" stroke="rgb(0, 0, 0)" stroke-width="0.5" stroke-linejoin="round" stroke-linecap="round" stroke-miterlimit="10" pointer-events="none"/><path d="M 173.7 26.84 M 173.7 26.84 C 174.32 29.15 174.71 30.55 174.4 34.63 M 173.7 26.84 C 173.62 28.77 174.04 31.26 174.4 34.63 M 174.4 34.63 C 173.34 33.83 172.96 32.84 171.78 31.72 M 174.4 34.63 C 173.79 34.21 173.27 33.29 171.78 31.72 M 171.78 31.72 C 169.9 31.72 168.66 31.99 167.89 32.07 M 171.78 31.72 C 170.59 31.85 169.53 31.92 167.89 32.07 M 167.89 32.07 C 169.91 30.72 171.04 30.41 173.7 26.84 M 167.89 32.07 C 170.12 29.95 172.02 28.47 173.7 26.84" fill="none" stroke="rgb(0, 0, 0)" stroke-linejoin="round" stroke-linecap="round" stroke-miterlimit="10" pointer-events="none"/><path d="M 257.45 110.23 Q 277.35 90.33 300.44 90.33 Q 323.52 90.33 338.92 105.73" fill="none" stroke="none" pointer-events="none" transform="translate(2,3)" opacity="0.25"/><path d="M 257.45 110.23 M 257.45 110.23 C 271.09 96.98 286.09 91.73 300.44 90.33 M 257.45 110.23 C 271.15 96.37 285.61 89.8 300.44 90.33 M 300.44 90.33 C 316.54 89.74 327.17 95 338.92 105.73 M 300.44 90.33 C 316.4 89.28 327.81 97.69 338.92 105.73" fill="none" stroke="#000000" stroke-linejoin="round" stroke-linecap="round" stroke-miterlimit="10" pointer-events="none" transform="translate(2,3)" opacity="0.25"/><path d="M 257.45 110.23 M 257.45 110.23 C 271.09 96.98 286.09 91.73 300.44 90.33 M 257.45 110.23 C 271.15 96.37 285.61 89.8 300.44 90.33 M 300.44 90.33 C 316.54 89.74 327.17 95 338.92 105.73 M 300.44 90.33 C 316.4 89.28 327.81 97.69 338.92 105.73" fill="none" stroke="rgb(0, 0, 0)" stroke-linejoin="round" stroke-linecap="round" stroke-miterlimit="10" pointer-events="none"/><path d="M 334.95 107.27 C 334.95 107.27 334.95 107.27 334.95 107.27 M 334.95 107.27 C 334.95 107.27 334.95 107.27 334.95 107.27 M 339.28 108.39 C 340.3 107.24 340.78 106.55 342.56 104.61 M 339.28 108.39 C 340.12 107.05 341.11 106.23 342.56 104.61" fill="none" stroke="rgb(0, 0, 0)" stroke-width="0.5" stroke-linejoin="round" stroke-linecap="round" stroke-miterlimit="10" pointer-events="none"/><path d="M 342.63 109.44 M 342.63 109.44 C 339.96 108.64 338.44 108.65 335.21 106.97 M 342.63 109.44 C 340.88 109.02 339.23 108.1 335.21 106.97 M 335.21 106.97 C 336.33 106.47 337.79 106.19 338.92 105.73 M 335.21 106.97 C 336.43 106.4 337.58 106.2 338.92 105.73 M 338.92 105.73 C 339.63 104.71 340.08 102.91 340.16 102.02 M 338.92 105.73 C 339.27 104.35 339.7 103.15 340.16 102.02 M 340.16 102.02 C 340.97 104.29 341.44 105.23 342.63 109.44 M 340.16 102.02 C 341.05 104.18 342.1 107.07 342.63 109.44" fill="none" stroke="rgb(0, 0, 0)" stroke-linejoin="round" stroke-linecap="round" stroke-miterlimit="10" pointer-events="none"/><path d="M 343.42 132 Q 323.52 151.9 300.44 151.9 Q 277.35 151.9 261.95 136.5" fill="none" stroke="none" pointer-events="none" transform="translate(2,3)" opacity="0.25"/><path d="M 343.42 132 M 343.42 132 C 330.53 145.96 317.68 151.01 300.44 151.9 M 343.42 132 C 328.2 143.94 314.47 150.08 300.44 151.9 M 300.44 151.9 C 286.3 153.72 271.52 147.16 261.95 136.5 M 300.44 151.9 C 284.57 152.83 272.99 145.61 261.95 136.5" fill="none" stroke="#000000" stroke-linejoin="round" stroke-linecap="round" stroke-miterlimit="10" pointer-events="none" transform="translate(2,3)" opacity="0.25"/><path d="M 343.42 132 M 343.42 132 C 330.53 145.96 317.68 151.01 300.44 151.9 M 343.42 132 C 328.2 143.94 314.47 150.08 300.44 151.9 M 300.44 151.9 C 286.3 153.72 271.52 147.16 261.95 136.5 M 300.44 151.9 C 284.57 152.83 272.99 145.61 261.95 136.5" fill="none" stroke="rgb(0, 0, 0)" stroke-linejoin="round" stroke-linecap="round" stroke-miterlimit="10" pointer-events="none"/><path d="M 257.97 133.1 C 257.97 133.1 257.97 133.1 257.97 133.1 M 257.97 133.1 C 257.97 133.1 257.97 133.1 257.97 133.1 M 259.67 137.24 C 260.57 136.21 261.48 134.91 262.3 134.22 M 259.67 137.24 C 260.29 136.65 260.92 135.66 262.3 134.22" fill="none" stroke="rgb(0, 0, 0)" stroke-width="0.5" stroke-linejoin="round" stroke-linecap="round" stroke-miterlimit="10" pointer-events="none"/><path d="M 258.24 132.79 M 258.24 132.79 C 260.77 132.6 261.8 133.6 265.66 135.27 M 258.24 132.79 C 260.67 133.85 263.03 134.16 265.66 135.27 M 265.66 135.27 C 264.46 135.6 262.82 136.08 261.95 136.5 M 265.66 135.27 C 264.82 135.74 264.13 135.72 261.95 136.5 M 261.95 136.5 C 261.78 137.77 260.97 139.04 260.71 140.22 M 261.95 136.5 C 261.38 137.73 260.92 139.23 260.71 140.22 M 260.71 140.22 C 259.68 136.66 259.52 135.26 258.24 132.79 M 260.71 140.22 C 260.33 138 259.14 136 258.24 132.79" fill="none" stroke="rgb(0, 0, 0)" stroke-linejoin="round" stroke-linecap="round" stroke-miterlimit="10" pointer-events="none"/><path d="M 198.94 114.61 Q 208.08 94.95 230.8 108.05" fill="none" stroke="none" pointer-events="none" transform="translate(2,3)" opacity="0.25"/><path d="M 198.94 114.61 M 198.94 114.61 C 205.41 102.54 215.91 101.29 230.8 108.05 M 198.94 114.61 C 206.49 102.11 217.93 99.16 230.8 108.05" fill="none" stroke="#000000" stroke-linejoin="round" stroke-linecap="round" stroke-miterlimit="10" pointer-events="none" transform="translate(2,3)" opacity="0.25"/><path d="M 198.94 114.61 M 198.94 114.61 C 205.41 102.54 215.91 101.29 230.8 108.05 M 198.94 114.61 C 206.49 102.11 217.93 99.16 230.8 108.05" fill="none" stroke="#666666" stroke-linejoin="round" stroke-linecap="round" stroke-miterlimit="10" pointer-events="none"/><path d="M 230.91 104.29 C 230.91 104.29 230.91 104.29 230.91 104.29 M 230.91 104.29 C 230.91 104.29 230.91 104.29 230.91 104.29 M 229.34 112.19 C 230.66 111.08 231.82 108.57 233.27 107.66 M 229.34 112.19 C 229.93 111.33 231.04 110.49 233.27 107.66" fill="none" stroke="#666666" stroke-width="0.5" stroke-linejoin="round" stroke-linecap="round" stroke-miterlimit="10" pointer-events="none"/><path d="M 235.34 110.68 M 235.34 110.68 C 234.3 110.38 232.75 111.27 227.53 110.21 M 235.34 110.68 C 232.43 110.87 230.16 110.61 227.53 110.21 M 227.53 110.21 C 228.5 109.36 229.43 109.03 230.8 108.05 M 227.53 110.21 C 228.77 109.58 230.05 108.49 230.8 108.05 M 230.8 108.05 C 230.63 106.35 231.22 105.42 231.03 104.15 M 230.8 108.05 C 230.88 106.83 230.95 106.1 231.03 104.15 M 231.03 104.15 C 232.76 106.02 233.55 107.09 235.34 110.68 M 231.03 104.15 C 231.99 105.33 232.8 106.84 235.34 110.68" fill="none" stroke="#666666" stroke-linejoin="round" stroke-linecap="round" stroke-miterlimit="10" pointer-events="none"/><path d="M 235.68 132 Q 221.94 144.2 204.45 130.34" fill="none" stroke="none" pointer-events="none" transform="translate(2,3)" opacity="0.25"/><path d="M 235.68 132 M 235.68 132 C 226.89 141.51 214.77 140.41 204.45 130.34 M 235.68 132 C 226.78 138.07 217.42 141.07 204.45 130.34" fill="none" stroke="#000000" stroke-linejoin="round" stroke-linecap="round" stroke-miterlimit="10" pointer-events="none" transform="translate(2,3)" opacity="0.25"/><path d="M 235.68 132 M 235.68 132 C 226.89 141.51 214.77 140.41 204.45 130.34 M 235.68 132 C 226.78 138.07 217.42 141.07 204.45 130.34" fill="none" stroke="#666666" stroke-linejoin="round" stroke-linecap="round" stroke-miterlimit="10" pointer-events="none"/><path d="M 200.5 126.88 C 200.5 126.88 200.5 126.88 200.5 126.88 M 200.5 126.88 C 200.5 126.88 200.5 126.88 200.5 126.88 M 202.21 131.01 C 202.61 130.42 203.52 129.78 204.84 127.99 M 202.21 131.01 C 203.31 129.9 204.28 128.77 204.84 127.99" fill="none" stroke="#666666" stroke-width="0.5" stroke-linejoin="round" stroke-linecap="round" stroke-miterlimit="10" pointer-events="none"/><path d="M 200.33 127.08 M 200.33 127.08 C 203.39 127.89 205.4 128.47 207.99 128.68 M 200.33 127.08 C 203.63 127.29 205.93 128.16 207.99 128.68 M 207.99 128.68 C 206.68 128.98 205.73 129.36 204.45 130.34 M 207.99 128.68 C 207.09 129.32 205.75 129.49 204.45 130.34 M 204.45 130.34 C 204.34 131.39 204.02 132.42 203.64 134.17 M 204.45 130.34 C 203.98 131.89 203.7 132.99 203.64 134.17 M 203.64 134.17 C 202.07 131.1 200.95 128.94 200.33 127.08 M 203.64 134.17 C 202.06 131.15 201.03 128.6 200.33 127.08" fill="none" stroke="#666666" stroke-linejoin="round" stroke-linecap="round" stroke-miterlimit="10" pointer-events="none"/><path d="M 134.31 132 Q 149.59 145.74 166.18 131.73" fill="none" stroke="none" pointer-events="none" transform="translate(2,3)" opacity="0.25"/><path d="M 134.31 132 M 134.31 132 C 144.87 142.87 156.18 140.76 166.18 131.73 M 134.31 132 C 143.57 141.03 155.47 139.62 166.18 131.73" fill="none" stroke="#000000" stroke-linejoin="round" stroke-linecap="round" stroke-miterlimit="10" pointer-events="none" transform="translate(2,3)" opacity="0.25"/><path d="M 134.31 132 M 134.31 132 C 144.87 142.87 156.18 140.76 166.18 131.73 M 134.31 132 C 143.57 141.03 155.47 139.62 166.18 131.73" fill="none" stroke="#666666" stroke-linejoin="round" stroke-linecap="round" stroke-miterlimit="10" pointer-events="none"/><path d="M 162.84 129.91 C 162.84 129.91 162.84 129.91 162.84 129.91 M 162.84 129.91 C 162.84 129.91 162.84 129.91 162.84 129.91 M 166.51 131.78 C 166.94 130.73 167.72 130.51 169.13 128.76 M 166.51 131.78 C 167.38 130.68 168.47 129.58 169.13 128.76" fill="none" stroke="#666666" stroke-width="0.5" stroke-linejoin="round" stroke-linecap="round" stroke-miterlimit="10" pointer-events="none"/><path d="M 170.19 128.34 M 170.19 128.34 C 169.18 131.25 168.18 132.62 167.1 135.53 M 170.19 128.34 C 169.52 129.7 168.5 131.96 167.1 135.53 M 167.1 135.53 C 167.07 134.6 166.97 134.12 166.18 131.73 M 167.1 135.53 C 166.79 134.67 166.73 133.7 166.18 131.73 M 166.18 131.73 C 164.64 130.9 163.51 130.83 162.59 130.19 M 166.18 131.73 C 165.21 131.39 164.3 130.87 162.59 130.19 M 162.59 130.19 C 164.6 129.98 166.89 129.34 170.19 128.34 M 162.59 130.19 C 165.42 129.23 167.93 128.91 170.19 128.34" fill="none" stroke="#666666" stroke-linejoin="round" stroke-linecap="round" stroke-miterlimit="10" pointer-events="none"/><path d="M 170.53 115.85 Q 160.37 99.57 140.2 107.82" fill="none" stroke="none" pointer-events="none" transform="translate(2,3)" opacity="0.25"/><path d="M 170.53 115.85 M 170.53 115.85 C 164.13 103.05 153.12 100.86 140.2 107.82 M 170.53 115.85 C 161.64 106.8 153.04 102.53 140.2 107.82" fill="none" stroke="#000000" stroke-linejoin="round" stroke-linecap="round" stroke-miterlimit="10" pointer-events="none" transform="translate(2,3)" opacity="0.25"/><path d="M 170.53 115.85 M 170.53 115.85 C 164.13 103.05 153.12 100.86 140.2 107.82 M 170.53 115.85 C 161.64 106.8 153.04 102.53 140.2 107.82" fill="none" stroke="#666666" stroke-linejoin="round" stroke-linecap="round" stroke-miterlimit="10" pointer-events="none"/><path d="M 135.25 109.91 C 135.25 109.91 135.25 109.91 135.25 109.91 M 135.25 109.91 C 135.25 109.91 135.25 109.91 135.25 109.91 M 140.24 110.27 C 140.45 109.89 140.77 109.59 141.55 108.76 M 140.24 110.27 C 140.77 109.72 141.17 109.19 141.55 108.76" fill="none" stroke="#666666" stroke-width="0.5" stroke-linejoin="round" stroke-linecap="round" stroke-miterlimit="10" pointer-events="none"/><path d="M 135.34 109.81 M 135.34 109.81 C 136.68 107.63 138.94 107.13 140.5 103.92 M 135.34 109.81 C 136.49 107.88 138 106.43 140.5 103.92 M 140.5 103.92 C 140.25 105.11 140.33 106.31 140.2 107.82 M 140.5 103.92 C 140.51 104.87 140.26 105.7 140.2 107.82 M 140.2 107.82 C 140.77 108.38 141.56 108.88 143.15 110.4 M 140.2 107.82 C 141.43 108.8 142.16 109.8 143.15 110.4 M 143.15 110.4 C 139.84 109.83 138.19 110.46 135.34 109.81 M 143.15 110.4 C 140.56 109.98 138.36 110.26 135.34 109.81" fill="none" stroke="#666666" stroke-linejoin="round" stroke-linecap="round" stroke-miterlimit="10" pointer-events="none"/><ellipse cx="354.31" cy="221.16" rx="15.391928251121076" ry="15.391928251121076" fill="#000000" stroke="#000000" transform="translate(2,3)rotate(-180,354.31,221.16)" pointer-events="none" opacity="0.25"/><ellipse cx="354.31" cy="221.16" rx="15.391928251121076" ry="15.391928251121076" fill="#eeeeee" stroke="#36393d" transform="rotate(-180,354.31,221.16)" pointer-events="none"/><ellipse cx="246.56" cy="221.16" rx="15.391928251121076" ry="15.391928251121076" fill="#000000" stroke="#000000" transform="translate(2,3)rotate(-180,246.56,221.16)" pointer-events="none" opacity="0.25"/><ellipse cx="246.56" cy="221.16" rx="15.391928251121076" ry="15.391928251121076" fill="url(#mx-gradient-f5f5f5-1-b3b3b3-1-s-0)" stroke="#666666" transform="rotate(-180,246.56,221.16)" pointer-events="none"/><ellipse cx="184.99" cy="221.16" rx="15.391928251121076" ry="15.391928251121076" fill="#000000" stroke="#000000" transform="translate(2,3)rotate(-205,184.99,221.16)" pointer-events="none" opacity="0.25"/><ellipse cx="184.99" cy="221.16" rx="15.391928251121076" ry="15.391928251121076" fill="url(#mx-gradient-f5f5f5-1-b3b3b3-1-s-0)" stroke="#666666" transform="rotate(-205,184.99,221.16)" pointer-events="none"/><ellipse cx="15.68" cy="221.16" rx="15.391928251121076" ry="15.391928251121076" fill="#000000" stroke="#000000" transform="translate(2,3)rotate(-180,15.68,221.16)" pointer-events="none" opacity="0.25"/><ellipse cx="15.68" cy="221.16" rx="15.391928251121076" ry="15.391928251121076" fill="#eeeeee" stroke="#36393d" transform="rotate(-180,15.68,221.16)" pointer-events="none"/><ellipse cx="123.43" cy="221.16" rx="15.391928251121076" ry="15.391928251121076" fill="#000000" stroke="#000000" transform="translate(2,3)rotate(-180,123.43,221.16)" pointer-events="none" opacity="0.25"/><ellipse cx="123.43" cy="221.16" rx="15.391928251121076" ry="15.391928251121076" fill="url(#mx-gradient-f5f5f5-1-b3b3b3-1-s-0)" stroke="#666666" transform="rotate(-180,123.43,221.16)" pointer-events="none"/><ellipse cx="15.68" cy="121.12" rx="15.391928251121076" ry="15.391928251121076" fill="#000000" stroke="#000000" transform="translate(2,3)rotate(-360,15.68,121.12)" pointer-events="none" opacity="0.25"/><ellipse cx="15.68" cy="121.12" rx="15.391928251121076" ry="15.391928251121076" fill="#eeeeee" stroke="#36393d" transform="rotate(-360,15.68,121.12)" pointer-events="none"/><ellipse cx="123.43" cy="121.12" rx="15.391928251121076" ry="15.391928251121076" fill="#000000" stroke="#000000" transform="translate(2,3)rotate(-360,123.43,121.12)" pointer-events="none" opacity="0.25"/><ellipse cx="123.43" cy="121.12" rx="15.391928251121076" ry="15.391928251121076" fill="url(#mx-gradient-f5f5f5-1-b3b3b3-1-s-0)" stroke="#666666" transform="rotate(-360,123.43,121.12)" pointer-events="none"/><ellipse cx="184.99" cy="121.12" rx="15.391928251121076" ry="15.391928251121076" fill="#000000" stroke="#000000" transform="translate(2,3)rotate(-385,184.99,121.12)" pointer-events="none" opacity="0.25"/><ellipse cx="184.99" cy="121.12" rx="15.391928251121076" ry="15.391928251121076" fill="url(#mx-gradient-f5f5f5-1-b3b3b3-1-s-0)" stroke="#666666" transform="rotate(-385,184.99,121.12)" pointer-events="none"/><ellipse cx="184.99" cy="14.91" rx="15.391928251121076" ry="15.391928251121076" fill="#000000" stroke="#000000" transform="translate(2,3)rotate(-360,184.99,14.91)" pointer-events="none" opacity="0.25"/><ellipse cx="184.99" cy="14.91" rx="15.391928251121076" ry="15.391928251121076" fill="#eeeeee" stroke="#36393d" transform="rotate(-360,184.99,14.91)" pointer-events="none"/><ellipse cx="354.31" cy="121.12" rx="15.391928251121076" ry="15.391928251121076" fill="#000000" stroke="#000000" transform="translate(2,3)rotate(-360,354.31,121.12)" pointer-events="none" opacity="0.25"/><ellipse cx="354.31" cy="121.12" rx="15.391928251121076" ry="15.391928251121076" fill="#eeeeee" stroke="#36393d" transform="rotate(-360,354.31,121.12)" pointer-events="none"/><ellipse cx="246.56" cy="121.12" rx="15.391928251121076" ry="15.391928251121076" fill="#000000" stroke="#000000" transform="translate(2,3)rotate(-360,246.56,121.12)" pointer-events="none" opacity="0.25"/><ellipse cx="246.56" cy="121.12" rx="15.391928251121076" ry="15.391928251121076" fill="url(#mx-gradient-f5f5f5-1-b3b3b3-1-s-0)" stroke="#666666" transform="rotate(-360,246.56,121.12)" pointer-events="none"/><ellipse cx="184.99" cy="327.37" rx="15.391928251121076" ry="15.391928251121076" fill="#000000" stroke="#000000" transform="translate(2,3)rotate(-180,184.99,327.37)" pointer-events="none" opacity="0.25"/><ellipse cx="184.99" cy="327.37" rx="15.391928251121076" ry="15.391928251121076" fill="#eeeeee" stroke="#36393d" transform="rotate(-180,184.99,327.37)" pointer-events="none"/></g></svg>