<?xml version="1.0" encoding="UTF-8"?>
<!DOCTYPE svg PUBLIC "-//W3C//DTD SVG 1.1//EN" "http://www.w3.org/Graphics/SVG/1.1/DTD/svg11.dtd">
<svg xmlns="http://www.w3.org/2000/svg" style="background-color: rgb(255, 255, 255);" xmlns:xlink="http://www.w3.org/1999/xlink" version="1.1" width="48px" height="147px" viewBox="-0.5 -0.5 48 147"><defs><linearGradient x1="0%" y1="0%" x2="0%" y2="100%" id="mx-gradient-f5f5f5-1-b3b3b3-1-s-0"><stop offset="0%" style="stop-color: rgb(245, 245, 245); stop-opacity: 1;"/><stop offset="100%" style="stop-color: rgb(179, 179, 179); stop-opacity: 1;"/></linearGradient></defs><g><path d="M 30.81 26.77 Q 44.08 42.62 44.08 61.86 Q 44.08 81.1 29.9 101.43" fill="none" stroke="none" pointer-events="stroke" transform="translate(2,3)" opacity="0.25"/><path d="M 30.81 26.77 Q 44.08 42.62 44.08 61.86 Q 44.08 81.1 29.9 101.43" fill="none" stroke="none" pointer-events="stroke"/><path d="M 26.9 105.74 L 28.03 97.99 L 29.9 101.43 L 33.77 102 Z" fill="none" stroke="none" pointer-events="all"/><path d="M 30.81 26.77 M 30.81 26.77 C 40.03 37.19 43.39 49.86 44.08 61.86 M 30.81 26.77 C 41.08 36.37 44.74 50.16 44.08 61.86 M 44.08 61.86 C 42.31 73.14 40.46 89.17 29.9 101.43 M 44.08 61.86 C 43.46 72.8 37.52 89.29 29.9 101.43" fill="none" stroke="#000000" stroke-linejoin="round" stroke-linecap="round" stroke-miterlimit="10" pointer-events="stroke" transform="translate(2,3)" opacity="0.25"/><path d="M 30.81 26.77 M 30.81 26.77 C 40.03 37.19 43.39 49.86 44.08 61.86 M 30.81 26.77 C 41.08 36.37 44.74 50.16 44.08 61.86 M 44.08 61.86 C 42.31 73.14 40.46 89.17 29.9 101.43 M 44.08 61.86 C 43.46 72.8 37.52 89.29 29.9 101.43" fill="none" stroke="rgb(0, 0, 0)" stroke-linejoin="round" stroke-linecap="round" stroke-miterlimit="10" pointer-events="stroke"/><path d="M 27.75 98.32 C 27.75 98.32 27.75 98.32 27.75 98.32 M 27.75 98.32 C 27.75 98.32 27.75 98.32 27.75 98.32 M 26.83 105.47 C 27.96 104.46 28.13 103.94 30.11 101.69 M 26.83 105.47 C 27.71 104.57 28.79 103.1 30.11 101.69" fill="none" stroke="rgb(0, 0, 0)" stroke-width="0.5" stroke-linejoin="round" stroke-linecap="round" stroke-miterlimit="10" pointer-events="all"/><path d="M 26.9 105.74 M 26.9 105.74 C 27.86 104.17 27.61 101.54 28.03 97.99 M 26.9 105.74 C 27.13 103.47 27.23 102.26 28.03 97.99 M 28.03 97.99 C 28.53 99.07 29.34 100.39 29.9 101.43 M 28.03 97.99 C 28.37 98.72 28.89 99.78 29.9 101.43 M 29.9 101.43 C 31.18 101.89 32.49 101.85 33.77 102 M 29.9 101.43 C 31.54 101.71 33.07 101.72 33.77 102 M 33.77 102 C 31.46 103.85 28.44 105.03 26.9 105.74 M 33.77 102 C 32.05 102.54 30.85 103.59 26.9 105.74" fill="none" stroke="rgb(0, 0, 0)" stroke-linejoin="round" stroke-linecap="round" stroke-miterlimit="10" pointer-events="all"/><path d="M 14.49 107.17 Q -9.79 76.48 7.78 31.72" fill="none" stroke="none" pointer-events="stroke" transform="translate(2,3)" opacity="0.25"/><path d="M 14.49 107.17 Q -9.79 76.48 7.78 31.72" fill="none" stroke="none" pointer-events="stroke"/><path d="M 9.7 26.84 L 10.4 34.63 L 7.78 31.72 L 3.89 32.07 Z" fill="none" stroke="none" pointer-events="all"/><path d="M 14.49 107.17 M 14.49 107.17 C -1.33 86.9 -2.22 61.24 7.78 31.72 M 14.49 107.17 C -1.46 87.67 -4.24 59.75 7.78 31.72" fill="none" stroke="#000000" stroke-linejoin="round" stroke-linecap="round" stroke-miterlimit="10" pointer-events="stroke" transform="translate(2,3)" opacity="0.25"/><path d="M 14.49 107.17 M 14.49 107.17 C -1.33 86.9 -2.22 61.24 7.78 31.72 M 14.49 107.17 C -1.46 87.67 -4.24 59.75 7.78 31.72" fill="none" stroke="rgb(0, 0, 0)" stroke-linejoin="round" stroke-linecap="round" stroke-miterlimit="10" pointer-events="stroke"/><path d="M 3.66 32.33 C 3.66 32.33 3.66 32.33 3.66 32.33 M 3.66 32.33 C 3.66 32.33 3.66 32.33 3.66 32.33 M 8.65 32.69 C 9.83 32.12 9.83 31.12 11.93 28.92 M 8.65 32.69 C 9.32 31.81 10.55 30.87 11.93 28.92" fill="none" stroke="rgb(0, 0, 0)" stroke-width="0.5" stroke-linejoin="round" stroke-linecap="round" stroke-miterlimit="10" pointer-events="all"/><path d="M 9.7 26.84 M 9.7 26.84 C 10.32 29.15 10.71 30.55 10.4 34.63 M 9.7 26.84 C 9.62 28.77 10.04 31.26 10.4 34.63 M 10.4 34.63 C 9.34 33.83 8.96 32.84 7.78 31.72 M 10.4 34.63 C 9.79 34.21 9.27 33.29 7.78 31.72 M 7.78 31.72 C 5.9 31.72 4.66 31.99 3.89 32.07 M 7.78 31.72 C 6.59 31.85 5.53 31.92 3.89 32.07 M 3.89 32.07 C 5.91 30.72 7.04 30.41 9.7 26.84 M 3.89 32.07 C 6.12 29.95 8.02 28.47 9.7 26.84" fill="none" stroke="rgb(0, 0, 0)" stroke-linejoin="round" stroke-linecap="round" stroke-miterlimit="10" pointer-events="all"/><ellipse cx="20.99" cy="121.12" rx="15.391928251121076" ry="15.391928251121076" fill="#000000" stroke="#000000" transform="translate(2,3)rotate(-385,20.99,121.12)" pointer-events="all" opacity="0.25"/><ellipse cx="20.99" cy="121.12" rx="15.391928251121076" ry="15.391928251121076" fill="url(#mx-gradient-f5f5f5-1-b3b3b3-1-s-0)" stroke="#666666" transform="rotate(-385,20.99,121.12)" pointer-events="all"/><ellipse cx="20.99" cy="14.91" rx="15.391928251121076" ry="15.391928251121076" fill="#000000" stroke="#000000" transform="translate(2,3)rotate(-360,20.99,14.91)" pointer-events="all" opacity="0.25"/><ellipse cx="20.99" cy="14.91" rx="15.391928251121076" ry="15.391928251121076" fill="#eeeeee" stroke="#36393d" transform="rotate(-360,20.99,14.91)" pointer-events="all"/></g></svg>