<?xml version="1.0" encoding="UTF-8"?>
<!DOCTYPE svg PUBLIC "-//W3C//DTD SVG 1.1//EN" "http://www.w3.org/Graphics/SVG/1.1/DTD/svg11.dtd">
<svg xmlns="http://www.w3.org/2000/svg" xmlns:xlink="http://www.w3.org/1999/xlink" version="1.1" width="1402px" height="471px" viewBox="-0.5 -0.5 1402 471"><defs/><g><rect x="480" y="1" width="440" height="240" fill="none" stroke="#000000" stroke-width="2" pointer-events="none"/><rect x="688.48" y="110.83" width="11.52" height="13.43" fill="#ffe6cc" stroke="none" pointer-events="none"/><path d="M 688.48 110.83 L 700 110.83 L 700 124.26 L 688.48 124.26 L 688.48 110.83" fill="none" stroke="#000000" stroke-linecap="square" stroke-miterlimit="10" pointer-events="none"/><path d="M 688.48 110.83 M 700.48 110.83 M 700.48 123.83 M 688.48 123.83" fill="none" stroke="rgb(0, 0, 0)" stroke-linecap="square" stroke-miterlimit="10" pointer-events="none"/><rect x="520" y="141.26" width="11.52" height="13.43" fill="#ffe6cc" stroke="none" pointer-events="none"/><path d="M 520 141.26 L 531.52 141.26 L 531.52 154.69 L 520 154.69 L 520 141.26" fill="none" stroke="#000000" stroke-linecap="square" stroke-miterlimit="10" pointer-events="none"/><path d="M 520 141.26 M 532 141.26 M 532 154.26 M 520 154.26" fill="none" stroke="rgb(0, 0, 0)" stroke-linecap="square" stroke-miterlimit="10" pointer-events="none"/><rect x="840" y="150.26" width="11.52" height="13.43" fill="#ffe6cc" stroke="none" pointer-events="none"/><path d="M 840 150.26 L 851.52 150.26 L 851.52 163.69 L 840 163.69 L 840 150.26" fill="none" stroke="#000000" stroke-linecap="square" stroke-miterlimit="10" pointer-events="none"/><path d="M 840 150.26 M 852 150.26 M 852 163.26 M 840 163.26" fill="none" stroke="rgb(0, 0, 0)" stroke-linecap="square" stroke-miterlimit="10" pointer-events="none"/><path d="M 510 154.09 Q 260 234.09 5.33 445.74" fill="none" stroke="rgb(0, 0, 0)" stroke-width="2" stroke-miterlimit="10" pointer-events="none"/><path d="M 0.72 449.57 L 4.32 441.38 L 5.33 445.74 L 9.43 447.53 Z" fill="rgb(0, 0, 0)" stroke="rgb(0, 0, 0)" stroke-width="2" stroke-miterlimit="10" pointer-events="none"/><path d="M 680 131 Q 590 291 656.32 423.63" fill="none" stroke="rgb(0, 0, 0)" stroke-width="2" stroke-miterlimit="10" pointer-events="none"/><path d="M 659 429 L 651.84 423.63 L 656.32 423.63 L 659 420.06 Z" fill="rgb(0, 0, 0)" stroke="rgb(0, 0, 0)" stroke-width="2" stroke-miterlimit="10" pointer-events="none"/><path d="M 860 164.09 Q 1080 244.09 1333.79 465.58" fill="none" stroke="rgb(0, 0, 0)" stroke-width="2" stroke-miterlimit="10" pointer-events="none"/><path d="M 1338.32 469.53 L 1329.66 467.28 L 1333.79 465.58 L 1334.92 461.26 Z" fill="rgb(0, 0, 0)" stroke="rgb(0, 0, 0)" stroke-width="2" stroke-miterlimit="10" pointer-events="none"/><path d="M 700 241 L 1400 241" fill="none" stroke="#f5f5f5" stroke-width="0.1" stroke-miterlimit="10" pointer-events="none"/></g></svg>